<svg xmlns="http://www.w3.org/2000/svg" xmlns:xlink="http://www.w3.org/1999/xlink" viewBox="0 0 194 32" preserveAspectRatio="xMidYMid" style="display: block; shape-rendering: auto; background: transparent;" width="100%" height="100%"><style type="text/css">
  .ld-text text {
    text-anchor: middle;
    dominant-baseline: middle;
    font-size: 31px;
    opacity: 0;
    user-select: none;
    pointer-events: none;
  }
</style>
<g style="transform-origin:97px 16px;transform:scale(1)" class="ld-text">
<g transform="translate(97,16)">
  <g transform="scale(0.3875) translate(0,0)"><g class="path" style="opacity: 1; transform-origin: -190.8px 1.1px; transform: matrix3d(0.91, 0, 0, 0, 0, 0.91, 0, 0, 0, 0, 0.91, 0, 0, 0, 0, 1); animation: 0.884956s linear -0.539142s 32 normal forwards running animate-luhvcwxn9; transform-box: view-box;"><path d="M20.88 2.92L33.92 41.24L40.56 18.20L35.76 2.92L31.20 2.92L31.20 1.40L56 1.40L56 2.92L51.28 2.92L63.20 40.76L72.80 2.92L64.72 2.92L64.72 1.40L80.72 1.40L80.72 2.92L75.44 2.92L60.72 58.20L53.60 58.20L41.76 22.04L31.36 58.20L24.40 58.20L4.24 2.92L0.48 2.92L0.48 1.40L26.48 1.40L26.48 2.92L20.88 2.92" style="fill: rgb(254, 112, 197);" transform="translate(-231.400,-28.702)"></path></g><g class="path" style="opacity: 1; transform-origin: -131.04px 10.06px; transform: matrix3d(0.91, 0, 0, 0, 0, 0.91, 0, 0, 0, 0, 0.91, 0, 0, 0, 0, 1); animation: 0.884956s linear -0.494214s 32 normal forwards running animate-luhvcwxn9; transform-box: view-box;"><path d="M124 55.96L124 57.40L105.76 57.40L104.88 51.56Q103.60 54.76 101.08 56.48Q98.56 58.20 93.60 58.20L93.60 58.20Q81.20 58.20 81.20 44.84L81.20 44.84L81.20 20.76L76.72 20.76L76.72 19.32L96.08 19.32L96.08 46.76Q96.08 51.56 96.76 53.08Q97.44 54.60 99.48 54.60Q101.52 54.60 103.12 52.12Q104.72 49.64 104.72 45.24L104.72 45.24L104.72 20.76L101.04 20.76L101.04 19.32L119.60 19.32L119.60 55.96L124 55.96" style="fill: rgb(251, 176, 52);" transform="translate(-231.400,-28.702)"></path></g><g class="path" style="opacity: 1; transform-origin: -123.92px -21.86px; transform: matrix3d(0.91, 0, 0, 0, 0, 0.91, 0, 0, 0, 0, 0.91, 0, 0, 0, 0, 1); animation: 0.884956s linear -0.449285s 32 normal forwards running animate-luhvcwxn9; transform-box: view-box;"><path d="M102.96 11Q101.52 9.24 101.52 6.76Q101.52 4.28 103.08 2.60Q104.64 0.92 107.40 0.92Q110.16 0.92 111.80 2.40Q113.44 3.88 113.44 6.68Q113.44 9.48 111.88 11.12Q110.32 12.76 107.36 12.76Q104.40 12.76 102.96 11" style="fill: rgb(255, 221, 0);" transform="translate(-231.400,-28.702)"></path></g><g class="path" style="opacity: 1; transform-origin: -139.36px -21.86px; transform: matrix3d(0.91, 0, 0, 0, 0, 0.91, 0, 0, 0, 0, 0.91, 0, 0, 0, 0, 1); animation: 0.884956s linear -0.404357s 32 normal forwards running animate-luhvcwxn9; transform-box: view-box;"><path d="M87.52 11Q86.08 9.24 86.08 6.76Q86.08 4.28 87.64 2.60Q89.20 0.92 91.96 0.92Q94.72 0.92 96.36 2.40Q98 3.88 98 6.68Q98 9.48 96.44 11.12Q94.88 12.76 91.92 12.76Q88.96 12.76 87.52 11" style="fill: rgb(193, 216, 47);" transform="translate(-231.400,-28.702)"></path></g><g class="path" style="opacity: 1; transform-origin: -81.6px 9.26px; transform: matrix3d(0.91, 0, 0, 0, 0, 0.91, 0, 0, 0, 0, 0.91, 0, 0, 0, 0, 1); animation: 0.884956s linear -0.359428s 32 normal forwards running animate-luhvcwxn9; transform-box: view-box;"><path d="M125.76 20.76L125.76 19.32L145.04 19.32L145.04 26.68Q146.32 23 148.96 20.76Q151.60 18.52 156.96 18.52L156.96 18.52Q169.36 18.52 169.36 31.88L169.36 31.88L169.36 55.96L173.84 55.96L173.84 57.40L151.20 57.40L151.20 55.96L154.48 55.96L154.48 29.96Q154.48 25.16 153.84 23.76Q153.20 22.36 151.52 22.36L151.52 22.36Q148.96 22.36 147 25.72Q145.04 29.08 145.04 33.88L145.04 33.88L145.04 55.96L148.48 55.96L148.48 57.40L125.76 57.40L125.76 55.96L130.16 55.96L130.16 20.76L125.76 20.76" style="fill: rgb(81, 200, 246);" transform="translate(-231.400,-28.702)"></path></g><g class="path" style="opacity: 1; transform-origin: -39.44px 9.58px; transform: matrix3d(0.91, 0, 0, 0, 0, 0.91, 0, 0, 0, 0, 0.91, 0, 0, 0, 0, 1); animation: 0.884956s linear -0.3145s 32 normal forwards running animate-luhvcwxn9; transform-box: view-box;"><path d="M177.68 58.20L176.72 58.20L176.72 43.88L177.68 43.88Q179.76 50.84 183.28 53.64Q186.80 56.44 192.08 56.44L192.08 56.44Q200.24 56.44 200.24 51.24L200.24 51.24Q200.24 49 198.24 47.88L198.24 47.88Q195.12 46.12 190.24 45.16L190.24 45.16Q184.80 43.72 181.12 41.32L181.12 41.32Q176.72 38.44 176.72 32.20Q176.72 25.96 180.56 22.24Q184.40 18.52 190.80 18.52L190.80 18.52Q194.72 18.52 198.88 20.36L198.88 20.36Q200.40 21 201.20 21Q202 21 202.56 20.44Q203.12 19.88 203.92 18.36L203.92 18.36L204.80 18.36L204.80 30.60L203.84 30.60Q199.76 20.20 191.20 20.20L191.20 20.20Q187.44 20.20 185.60 21.52Q183.76 22.84 183.76 24.84L183.76 24.84Q183.76 26.04 184.32 26.72Q184.88 27.40 185.20 27.72Q185.52 28.04 186.24 28.40Q186.96 28.76 187.44 28.96Q187.92 29.16 188.92 29.48Q189.92 29.80 190.40 29.88L190.40 29.88Q195.84 31.24 198.24 32.24Q200.64 33.24 202.80 34.68L202.80 34.68Q207.20 37.72 207.20 44.48Q207.20 51.24 203.20 54.72Q199.20 58.20 192.24 58.20L192.24 58.20Q187.28 58.20 182.64 55.88L182.64 55.88Q181.68 55.24 181.12 55.24L181.12 55.24Q179.36 55.24 177.68 58.20L177.68 58.20" style="fill: rgb(253, 173, 88);" transform="translate(-231.400,-28.702)"></path></g><g class="path" style="opacity: 1; transform-origin: -3.28px 9.66px; transform: matrix3d(0.91, 0, 0, 0, 0, 0.91, 0, 0, 0, 0, 0.91, 0, 0, 0, 0, 1); animation: 0.884956s linear -0.269571s 32 normal forwards running animate-luhvcwxn9; transform-box: view-box;"><path d="M232 19.96L232 19.96Q228.48 19.96 226.96 23.80Q225.44 27.64 225.44 36.52L225.44 36.52L225.44 40.68Q225.44 48.60 227.20 52.04Q228.96 55.48 233.68 55.48Q238.40 55.48 241.20 52.28Q244 49.08 244.80 45L244.80 45L246.24 45.16Q244.72 52.04 240.64 55.08L240.64 55.08Q236.48 58.20 229.20 58.20L229.20 58.20Q219.92 58.20 214.96 53.20Q210 48.20 210 38.56Q210 28.92 215.64 23.72Q221.28 18.52 231.36 18.52L231.36 18.52Q238.48 18.52 242.24 21.28Q246 24.04 246 28.20Q246 32.36 244.20 34.28Q242.40 36.20 239.24 36.20Q236.08 36.20 234.16 34.52Q232.24 32.84 232.24 29.56L232.24 29.56Q232.24 28.12 232.64 26.68L232.64 26.68L235.28 26.68Q235.84 25.08 235.84 23.80L235.84 23.80Q235.84 19.96 232 19.96" style="fill: rgb(119, 250, 229);" transform="translate(-231.400,-28.702)"></path></g><g class="path" style="opacity: 1; transform-origin: 40.08px -1.3px; transform: matrix3d(0.91, 0, 0, 0, 0, 0.91, 0, 0, 0, 0, 0.91, 0, 0, 0, 0, 1); animation: 0.884956s linear -0.224643s 32 normal forwards running animate-luhvcwxn9; transform-box: view-box;"><path d="M247.44-1.16L247.44-2.60L266.72-2.60L266.72 26.68Q268 23 270.64 20.76Q273.28 18.52 278.64 18.52L278.64 18.52Q291.04 18.52 291.04 31.88L291.04 31.88L291.04 55.96L295.52 55.96L295.52 57.40L272.88 57.40L272.88 55.96L276.16 55.96L276.16 29.96Q276.16 25.16 275.52 23.76Q274.88 22.36 273.20 22.36L273.20 22.36Q270.64 22.36 268.68 25.72Q266.72 29.08 266.72 33.88L266.72 33.88L266.72 55.96L270.16 55.96L270.16 57.40L247.44 57.40L247.44 55.96L251.84 55.96L251.84-1.16L247.44-1.16" style="fill: rgb(254, 112, 197);" transform="translate(-231.400,-28.702)"></path></g><g class="path" style="opacity: 1; transform-origin: 84.73px 9.66px; transform: matrix3d(0.91, 0, 0, 0, 0, 0.91, 0, 0, 0, 0, 0.91, 0, 0, 0, 0, 1); animation: 0.884956s linear -0.179714s 32 normal forwards running animate-luhvcwxn9; transform-box: view-box;"><path d="M317.76 58.20Q307.44 58.20 302.28 52.88Q297.12 47.56 297.12 38.08Q297.12 28.60 302.92 23.56Q308.72 18.52 317.68 18.52L317.68 18.52Q335.84 18.52 335.12 36.76L335.12 36.76L312.56 36.76L312.56 39.88Q312.56 47.72 314.56 51.72Q316.56 55.72 321.52 55.72L321.52 55.72Q330.80 55.72 333.68 45.80L333.68 45.80L335.12 46.04Q333.60 51.80 329.64 55Q325.68 58.20 317.76 58.20L317.76 58.20 zM312.64 31.24L312.64 35.16L320.88 35.16L320.88 31.24Q320.88 24.76 320.12 22.40Q319.36 20.04 317.08 20.04Q314.80 20.04 313.72 22.56Q312.64 25.08 312.64 31.24L312.64 31.24" style="fill: rgb(251, 176, 52);" transform="translate(-231.400,-28.702)"></path></g><g class="path" style="opacity: 1; transform-origin: 143.88px -0.9px; transform: matrix3d(0.91, 0, 0, 0, 0, 0.91, 0, 0, 0, 0, 0.91, 0, 0, 0, 0, 1); animation: 0.884956s linear -0.134786s 32 normal forwards running animate-luhvcwxn9; transform-box: view-box;"><path d="M368.64 40.84Q368.64 49.24 369.52 52Q370.40 54.76 372.76 54.76Q375.12 54.76 376.84 52.68Q378.56 50.60 378.56 46.52L378.56 46.52L378.56 29.08Q378.56 25.64 377.20 23.24Q375.84 20.84 373.20 20.84Q370.56 20.84 369.60 24.36Q368.64 27.88 368.64 36.68L368.64 36.68L368.64 40.84 zM397.36 57.40L379.60 57.40L378.72 51.80Q376 58.20 367.68 58.20L367.68 58.20Q360.80 58.20 357 53.24Q353.20 48.28 353.20 38.44L353.20 38.44Q353.20 18.52 369.04 18.52L369.04 18.52Q376.08 18.52 378.32 22.44L378.32 22.44L378.32-1.16L373.44-1.16L373.44-2.60L393.44-2.60L393.44 55.96L397.36 55.96L397.36 57.40" style="fill: rgb(255, 221, 0);" transform="translate(-231.400,-28.702)"></path></g><g class="path" style="opacity: 1; transform-origin: 180px -22.34px; transform: matrix3d(0.91, 0, 0, 0, 0, 0.91, 0, 0, 0, 0, 0.91, 0, 0, 0, 0, 1); animation: 0.884956s linear -0.089857s 32 normal forwards running animate-luhvcwxn9; transform-box: view-box;"><path d="M411.20 13.80Q406.96 13.80 405.16 11.64Q403.36 9.48 403.36 6.28Q403.36 3.08 405.32 1Q407.28-1.08 411.28-1.08Q415.28-1.08 417.36 0.80Q419.44 2.68 419.44 6.16Q419.44 9.64 417.44 11.72Q415.44 13.80 411.20 13.80" style="fill: rgb(193, 216, 47);" transform="translate(-231.400,-28.702)"></path></g><g class="path" style="opacity: 1; transform-origin: 179.76px 9.66px; transform: matrix3d(0.91, 0, 0, 0, 0, 0.91, 0, 0, 0, 0, 0.91, 0, 0, 0, 0, 1); animation: 0.884956s linear -0.0449285s 32 normal forwards running animate-luhvcwxn9; transform-box: view-box;"><path d="M399.12 20.76L399.12 19.32L418.72 19.32L418.72 55.96L423.20 55.96L423.20 57.40L399.44 57.40L399.44 55.96L403.84 55.96L403.84 20.76L399.12 20.76" style="fill: rgb(81, 200, 246);" transform="translate(-231.400,-28.702)"></path></g><g class="path" style="opacity: 1; transform-origin: 212.64px 9.26px; transform: matrix3d(0.91, 0, 0, 0, 0, 0.91, 0, 0, 0, 0, 0.91, 0, 0, 0, 0, 1); animation: 0.884956s linear 0s 32 normal forwards running animate-luhvcwxn9; transform-box: view-box;"><path d="M451.52 21.56L451.52 21.56Q448.56 21.56 446.32 25.40Q444.08 29.24 444.08 34.52L444.08 34.52L444.08 55.96L449.76 55.96L449.76 57.40L424.80 57.40L424.80 55.96L429.20 55.96L429.20 20.76L424.80 20.76L424.80 19.32L444.08 19.32L444.08 27Q445.12 22.92 448.08 20.72Q451.04 18.52 454.80 18.52Q458.56 18.52 460.92 20.64Q463.28 22.76 463.28 26.64Q463.28 30.52 461.52 32.60Q459.76 34.68 456.12 34.68Q452.48 34.68 450.76 32.28Q449.04 29.88 450.32 25.64L450.32 25.64L453.20 25.64Q455.20 21.56 451.52 21.56" style="fill: rgb(253, 173, 88);" transform="translate(-231.400,-28.702)"></path></g></g><text dy="0.35em" fill="#fe70c5" font-family="Abril Fatface" font-size="31">Wünsche dir</text>
</g>
</g><style type="text/css">@keyframes animate-luhvcwxn9 { 0.00% {transform: translate(0.00px,0.00px) rotate(0.00deg) scale(0.91, 0.91) skew(0deg, 0.00deg) ;opacity: 1.00;}4.00% {transform: translate(0.00px,0.00px) rotate(0.00deg) scale(0.91, 0.91) ;}8.00% {animation-timing-function: cubic-bezier(0.69,0.60,0.35,0.27);transform: translate(0.00px,0.00px) rotate(0.00deg) scale(0.91, 0.91) ;}14.00% {transform: translate(0.00px,0.00px) rotate(0.00deg) scale(0.93, 0.93) ;}18.00% {transform: translate(0.00px,0.00px) rotate(0.00deg) scale(0.94, 0.94) ;}22.00% {animation-timing-function: cubic-bezier(0.67,0.66,0.34,0.33);transform: translate(0.00px,0.00px) rotate(0.00deg) scale(0.96, 0.96) ;}26.00% {transform: translate(0.00px,0.00px) rotate(0.00deg) scale(0.97, 0.97) ;}30.00% {transform: translate(0.00px,0.00px) rotate(0.00deg) scale(0.99, 0.99) ;}34.00% {animation-timing-function: cubic-bezier(0.65,0.71,0.32,0.38);transform: translate(0.00px,0.00px) rotate(0.00deg) scale(1.01, 1.01) ;}40.00% {animation-timing-function: cubic-bezier(0.64,0.74,0.31,0.41);transform: translate(0.00px,0.00px) rotate(0.00deg) scale(1.02, 1.02) ;}46.00% {animation-timing-function: cubic-bezier(0.60,0.91,0.23,0.63);transform: translate(0.00px,0.00px) rotate(0.00deg) scale(1.03, 1.03) ;}50.00% {transform: translate(0.00px,0.00px) rotate(0.00deg) scale(1.03, 1.03) ;}54.00% {transform: translate(0.00px,0.00px) rotate(0.00deg) scale(1.03, 1.03) ;}58.00% {animation-timing-function: cubic-bezier(0.69,0.60,0.35,0.27);transform: translate(0.00px,0.00px) rotate(0.00deg) scale(1.03, 1.03) ;}64.00% {transform: translate(0.00px,0.00px) rotate(0.00deg) scale(1.01, 1.01) ;}68.00% {transform: translate(0.00px,0.00px) rotate(0.00deg) scale(1.00, 1.00) ;}72.00% {animation-timing-function: cubic-bezier(0.67,0.66,0.34,0.33);transform: translate(0.00px,0.00px) rotate(0.00deg) scale(0.98, 0.98) ;}76.00% {animation-timing-function: cubic-bezier(0.66,0.68,0.33,0.35);transform: translate(0.00px,0.00px) rotate(0.00deg) scale(0.97, 0.97) ;}82.00% {animation-timing-function: cubic-bezier(0.65,0.71,0.32,0.38);transform: translate(0.00px,0.00px) rotate(0.00deg) scale(0.94, 0.94) ;}88.00% {animation-timing-function: cubic-bezier(0.65,0.73,0.31,0.40);transform: translate(0.00px,0.00px) rotate(0.00deg) scale(0.92, 0.92) ;}94.00% {animation-timing-function: cubic-bezier(0.63,0.80,0.28,0.48);transform: translate(0.00px,0.00px) rotate(0.00deg) scale(0.91, 0.91) ;}100.00% {animation-timing-function: cubic-bezier(0.63,0.80,0.28,0.48);transform: translate(0.00px,0.00px) rotate(0.00deg) scale(0.91, 0.91) ;} }</style><!-- [ldio] generated by https://loading.io --></svg>