<svg xmlns="http://www.w3.org/2000/svg" xmlns:xlink="http://www.w3.org/1999/xlink" viewBox="0 0 186 43" preserveAspectRatio="xMidYMid" style="display: block; shape-rendering: auto; background: transparent;" width="100%" height="100%"><style type="text/css">
  .ld-text text {
    text-anchor: middle;
    dominant-baseline: middle;
    font-size: 31px;
    opacity: 0;
    user-select: none;
    pointer-events: none;
  }
</style>
<g style="transform-origin:93px 21.5px;transform:scale(1)" class="ld-text">
<g transform="translate(93,21.5)">
  <g transform="scale(0.3875) translate(0,0)"><g class="path" style="opacity: 1; transform-origin: -185.41px -3.58px; transform: matrix3d(0.91, 0, 0, 0, 0, 0.91, 0, 0, 0, 0, 0.91, 0, 0, 0, 0, 1); animation: 0.462963s linear -0.277778s 32 normal forwards running animate-luhvcwxn9; transform-box: view-box;"><path d="M57.12 19.88L57.12 19.88Q57.12 36.36 47.84 42.84L47.84 42.84Q39.28 48.84 24.32 48.84L24.32 48.84L1.68 48.84L1.68 47.32L6.96 47.32L6.96-5.64L1.68-5.64L1.68-7.16L26.40-7.16Q41.76-7.16 49.44-0.88Q57.12 5.40 57.12 19.88 zM22.56-5.64L22.56 47.32L25.60 47.32Q33.68 47.32 37.16 41.60Q40.64 35.88 40.64 22.44L40.64 22.44L40.64 17.80Q40.64-0.20 33.76-3.88L33.76-3.88Q30.48-5.64 24.48-5.64L24.48-5.64L22.56-5.64" style="fill: rgb(249, 57, 109);" transform="translate(-214.814,-24.419)"></path></g><g class="path" style="opacity: 1; transform-origin: -134.2px 5.38px; transform: matrix3d(0.91, 0, 0, 0, 0, 0.91, 0, 0, 0, 0, 0.91, 0, 0, 0, 0, 1); animation: 0.462963s linear -0.25s 32 normal forwards running animate-luhvcwxn9; transform-box: view-box;"><path d="M82.24 49.64Q71.92 49.64 66.76 44.32Q61.60 39 61.60 29.52Q61.60 20.04 67.40 15Q73.20 9.96 82.16 9.96L82.16 9.96Q100.32 9.96 99.60 28.20L99.60 28.20L77.04 28.20L77.04 31.32Q77.04 39.16 79.04 43.16Q81.04 47.16 86 47.16L86 47.16Q95.28 47.16 98.16 37.24L98.16 37.24L99.60 37.48Q98.08 43.24 94.12 46.44Q90.16 49.64 82.24 49.64L82.24 49.64 zM77.12 22.68L77.12 26.60L85.36 26.60L85.36 22.68Q85.36 16.20 84.60 13.84Q83.84 11.48 81.56 11.48Q79.28 11.48 78.20 14Q77.12 16.52 77.12 22.68L77.12 22.68" style="fill: rgb(251, 176, 52);" transform="translate(-214.814,-24.419)"></path></g><g class="path" style="opacity: 1; transform-origin: -96.05px 5.3px; transform: matrix3d(0.91, 0, 0, 0, 0, 0.91, 0, 0, 0, 0, 0.91, 0, 0, 0, 0, 1); animation: 0.462963s linear -0.222222s 32 normal forwards running animate-luhvcwxn9; transform-box: view-box;"><path d="M104.48 49.64L103.52 49.64L103.52 35.32L104.48 35.32Q106.56 42.28 110.08 45.08Q113.60 47.88 118.88 47.88L118.88 47.88Q127.04 47.88 127.04 42.68L127.04 42.68Q127.04 40.44 125.04 39.32L125.04 39.32Q121.92 37.56 117.04 36.60L117.04 36.60Q111.60 35.16 107.92 32.76L107.92 32.76Q103.52 29.88 103.52 23.64Q103.52 17.40 107.36 13.68Q111.20 9.96 117.60 9.96L117.60 9.96Q121.52 9.96 125.68 11.80L125.68 11.80Q127.20 12.44 128 12.44Q128.80 12.44 129.36 11.88Q129.92 11.32 130.72 9.80L130.72 9.80L131.60 9.80L131.60 22.04L130.64 22.04Q126.56 11.64 118 11.64L118 11.64Q114.24 11.64 112.40 12.96Q110.56 14.28 110.56 16.28L110.56 16.28Q110.56 17.48 111.12 18.16Q111.68 18.84 112 19.16Q112.32 19.48 113.04 19.84Q113.76 20.20 114.24 20.40Q114.72 20.60 115.72 20.92Q116.72 21.24 117.20 21.32L117.20 21.32Q122.64 22.68 125.04 23.68Q127.44 24.68 129.60 26.12L129.60 26.12Q134 29.16 134 35.92Q134 42.68 130 46.16Q126 49.64 119.04 49.64L119.04 49.64Q114.08 49.64 109.44 47.32L109.44 47.32Q108.48 46.68 107.92 46.68L107.92 46.68Q106.16 46.68 104.48 49.64L104.48 49.64" style="fill: rgb(255, 221, 0);" transform="translate(-214.814,-24.419)"></path></g><g class="path" style="opacity: 1; transform-origin: -59px 5.38px; transform: matrix3d(0.91, 0, 0, 0, 0, 0.91, 0, 0, 0, 0, 0.91, 0, 0, 0, 0, 1); animation: 0.462963s linear -0.194444s 32 normal forwards running animate-luhvcwxn9; transform-box: view-box;"><path d="M157.44 49.64Q147.12 49.64 141.96 44.32Q136.80 39 136.80 29.52Q136.80 20.04 142.60 15Q148.40 9.96 157.36 9.96L157.36 9.96Q175.52 9.96 174.80 28.20L174.80 28.20L152.24 28.20L152.24 31.32Q152.24 39.16 154.24 43.16Q156.24 47.16 161.20 47.16L161.20 47.16Q170.48 47.16 173.36 37.24L173.36 37.24L174.80 37.48Q173.28 43.24 169.32 46.44Q165.36 49.64 157.44 49.64L157.44 49.64 zM152.32 22.68L152.32 26.60L160.56 26.60L160.56 22.68Q160.56 16.20 159.80 13.84Q159.04 11.48 156.76 11.48Q154.48 11.48 153.40 14Q152.32 16.52 152.32 22.68L152.32 22.68" style="fill: rgb(193, 216, 47);" transform="translate(-214.814,-24.419)"></path></g><g class="path" style="opacity: 1; transform-origin: -15.17px 5.38px; transform: matrix3d(0.91, 0, 0, 0, 0, 0.91, 0, 0, 0, 0, 0.91, 0, 0, 0, 0, 1); animation: 0.462963s linear -0.166667s 32 normal forwards running animate-luhvcwxn9; transform-box: view-box;"><path d="M196.88 30.04L196.88 30.04L199.20 30.04L199.20 23.88Q199.20 16.28 198.36 13.68Q197.52 11.08 195.12 11.08L195.12 11.08Q193.68 11.08 192.52 11.84Q191.36 12.60 191.36 13.92Q191.36 15.24 191.84 16.60L191.84 16.60L193.84 16.60Q194.48 18.28 194.48 20.64Q194.48 23 192.48 24.72Q190.48 26.44 187.44 26.44L187.44 26.44Q180.56 26.44 180.56 19.80L180.56 19.80Q180.56 9.96 197.28 9.96L197.28 9.96Q206.80 9.96 210.44 13.20Q214.08 16.44 214.08 25.08L214.08 25.08L214.08 41.32Q214.08 45.48 216.40 45.48L216.40 45.48Q219.12 45.48 219.60 37.24L219.60 37.24L220.80 37.32Q220.48 44.36 218.16 47Q215.84 49.64 210.56 49.64L210.56 49.64Q200.96 49.64 199.52 43.72L199.52 43.72Q198.48 46.76 196.40 48.20Q194.32 49.64 190.32 49.64L190.32 49.64Q178.48 49.64 178.48 39.96L178.48 39.96Q178.48 34.28 183 32.16Q187.52 30.04 196.88 30.04 zM193.68 39.88Q193.68 44.04 194.12 45.24Q194.56 46.44 195.80 46.44Q197.04 46.44 198.12 44.40Q199.20 42.36 199.20 38.76L199.20 38.76L199.20 31.32L198.64 31.32Q193.68 31.32 193.68 38.60L193.68 38.60L193.68 39.88" style="fill: rgb(72, 197, 246);" transform="translate(-214.814,-24.419)"></path></g><g class="path" style="opacity: 1; transform-origin: -15.93px -27.19px; transform: matrix3d(0.91, 0, 0, 0, 0, 0.91, 0, 0, 0, 0, 0.91, 0, 0, 0, 0, 1); animation: 0.462963s linear -0.138889s 32 normal forwards running animate-luhvcwxn9; transform-box: view-box;"><path d="M192.80 5.64L191.92 5.08L196.96-10.20L200.72-11Q203.20-11.56 204.52-10.40Q205.84-9.24 205.84-7.28Q205.84-5.32 203.52-3.24L203.52-3.24L192.80 5.64" style="fill: rgb(227, 153, 74);" transform="translate(-214.814,-24.419)"></path></g><g class="path" style="opacity: 1; transform-origin: 30.99px 4.98px; transform: matrix3d(0.91, 0, 0, 0, 0, 0.91, 0, 0, 0, 0, 0.91, 0, 0, 0, 0, 1); animation: 0.462963s linear -0.111111s 32 normal forwards running animate-luhvcwxn9; transform-box: view-box;"><path d="M221.76 12.20L221.76 10.76L241.04 10.76L241.04 18.12Q242.32 14.44 244.96 12.20Q247.60 9.96 252.96 9.96L252.96 9.96Q265.36 9.96 265.36 23.32L265.36 23.32L265.36 47.40L269.84 47.40L269.84 48.84L247.20 48.84L247.20 47.40L250.48 47.40L250.48 21.40Q250.48 16.60 249.84 15.20Q249.20 13.80 247.52 13.80L247.52 13.80Q244.96 13.80 243 17.16Q241.04 20.52 241.04 25.32L241.04 25.32L241.04 47.40L244.48 47.40L244.48 48.84L221.76 48.84L221.76 47.40L226.16 47.40L226.16 12.20L221.76 12.20" style="fill: rgb(241, 158, 238);" transform="translate(-214.814,-24.419)"></path></g><g class="path" style="opacity: 1; transform-origin: 78.95px -5.18px; transform: matrix3d(0.91, 0, 0, 0, 0, 0.91, 0, 0, 0, 0, 0.91, 0, 0, 0, 0, 1); animation: 0.462963s linear -0.0833333s 32 normal forwards running animate-luhvcwxn9; transform-box: view-box;"><path d="M287.12 32.28Q287.12 40.68 288 43.44Q288.88 46.20 291.24 46.20Q293.60 46.20 295.32 44.12Q297.04 42.04 297.04 37.96L297.04 37.96L297.04 20.52Q297.04 17.08 295.68 14.68Q294.32 12.28 291.68 12.28Q289.04 12.28 288.08 15.80Q287.12 19.32 287.12 28.12L287.12 28.12L287.12 32.28 zM315.84 48.84L298.08 48.84L297.20 43.24Q294.48 49.64 286.16 49.64L286.16 49.64Q279.28 49.64 275.48 44.68Q271.68 39.72 271.68 29.88L271.68 29.88Q271.68 9.96 287.52 9.96L287.52 9.96Q294.56 9.96 296.80 13.88L296.80 13.88L296.80-9.72L291.92-9.72L291.92-11.16L311.92-11.16L311.92 47.40L315.84 47.40L315.84 48.84" style="fill: rgb(249, 57, 109);" transform="translate(-214.814,-24.419)"></path></g><g class="path" style="opacity: 1; transform-origin: 124.03px 5.38px; transform: matrix3d(0.91, 0, 0, 0, 0, 0.91, 0, 0, 0, 0, 0.91, 0, 0, 0, 0, 1); animation: 0.462963s linear -0.0555556s 32 normal forwards running animate-luhvcwxn9; transform-box: view-box;"><path d="M343.76 33.08L343.76 33.08L343.76 26.28Q343.76 18.52 342.92 14.96Q342.08 11.40 339.04 11.40L339.04 11.40Q337.28 11.40 336.20 12.40Q335.12 13.40 334.64 15.72L334.64 15.72Q333.92 19.32 333.92 26.68L333.92 26.68L333.92 32.92Q333.92 41.64 334.44 43.40Q334.96 45.16 335.52 46.28L335.52 46.28Q336.40 48.20 338.96 48.20L338.96 48.20Q342.08 48.20 343.04 44.60L343.04 44.60Q343.76 42.04 343.76 33.08 zM338.80 49.64Q328.80 49.64 323.68 44.52Q318.56 39.40 318.56 29.84Q318.56 20.28 324.04 15.12Q329.52 9.96 339.44 9.96Q349.36 9.96 354.24 14.72Q359.12 19.48 359.12 29.24L359.12 29.24Q359.12 49.64 338.80 49.64L338.80 49.64" style="fill: rgb(251, 176, 52);" transform="translate(-214.814,-24.419)"></path></g><g class="path" style="opacity: 1; transform-origin: 161.71px -1.22px; transform: matrix3d(0.91, 0, 0, 0, 0, 0.91, 0, 0, 0, 0, 0.91, 0, 0, 0, 0, 1); animation: 0.462963s linear -0.0277778s 32 normal forwards running animate-luhvcwxn9; transform-box: view-box;"><path d="M365.36 37.40L365.36 37.40L365.36 12.20L360.96 12.20L360.96 10.76L365.36 10.76L365.36 0.44L380.24-3.24L380.24 10.76L390.64 10.76L390.64 12.20L380.24 12.20L380.24 39.16Q380.24 42.92 381 44.68Q381.76 46.44 384.16 46.44Q386.56 46.44 388.36 44.04Q390.16 41.64 390.72 37.48L390.72 37.48L392.08 37.64Q391.44 43.16 388.56 46.40Q385.68 49.64 379.04 49.64Q372.40 49.64 368.88 47Q365.36 44.36 365.36 37.40" style="fill: rgb(255, 221, 0);" transform="translate(-214.814,-24.419)"></path></g><g class="path" style="opacity: 1; transform-origin: 197.48px 5.38px; transform: matrix3d(0.91, 0, 0, 0, 0, 0.91, 0, 0, 0, 0, 0.91, 0, 0, 0, 0, 1); animation: 0.462963s linear 0s 32 normal forwards running animate-luhvcwxn9; transform-box: view-box;"><path d="M413.92 49.64Q403.60 49.64 398.44 44.32Q393.28 39 393.28 29.52Q393.28 20.04 399.08 15Q404.88 9.96 413.84 9.96L413.84 9.96Q432 9.96 431.28 28.20L431.28 28.20L408.72 28.20L408.72 31.32Q408.72 39.16 410.72 43.16Q412.72 47.16 417.68 47.16L417.68 47.16Q426.96 47.16 429.84 37.24L429.84 37.24L431.28 37.48Q429.76 43.24 425.80 46.44Q421.84 49.64 413.92 49.64L413.92 49.64 zM408.80 22.68L408.80 26.60L417.04 26.60L417.04 22.68Q417.04 16.20 416.28 13.84Q415.52 11.48 413.24 11.48Q410.96 11.48 409.88 14Q408.80 16.52 408.80 22.68L408.80 22.68" style="fill: rgb(193, 216, 47);" transform="translate(-214.814,-24.419)"></path></g></g><text dy="0.35em" fill="#f9396d" font-family="Abril Fatface" font-size="31">Deseándote</text>
</g>
</g><style type="text/css">@keyframes animate-luhvcwxn9 { 0.00% {transform: translate(0.00px,0.00px) rotate(0.00deg) scale(0.91, 0.91) skew(0deg, 0.00deg) ;opacity: 1.00;}4.00% {transform: translate(0.00px,0.00px) rotate(0.00deg) scale(0.91, 0.91) ;}8.00% {animation-timing-function: cubic-bezier(0.69,0.60,0.35,0.27);transform: translate(0.00px,0.00px) rotate(0.00deg) scale(0.91, 0.91) ;}14.00% {transform: translate(0.00px,0.00px) rotate(0.00deg) scale(0.93, 0.93) ;}18.00% {transform: translate(0.00px,0.00px) rotate(0.00deg) scale(0.94, 0.94) ;}22.00% {animation-timing-function: cubic-bezier(0.67,0.66,0.34,0.33);transform: translate(0.00px,0.00px) rotate(0.00deg) scale(0.96, 0.96) ;}26.00% {transform: translate(0.00px,0.00px) rotate(0.00deg) scale(0.97, 0.97) ;}30.00% {transform: translate(0.00px,0.00px) rotate(0.00deg) scale(0.99, 0.99) ;}34.00% {animation-timing-function: cubic-bezier(0.65,0.71,0.32,0.38);transform: translate(0.00px,0.00px) rotate(0.00deg) scale(1.01, 1.01) ;}40.00% {animation-timing-function: cubic-bezier(0.64,0.74,0.31,0.41);transform: translate(0.00px,0.00px) rotate(0.00deg) scale(1.02, 1.02) ;}46.00% {animation-timing-function: cubic-bezier(0.60,0.91,0.23,0.63);transform: translate(0.00px,0.00px) rotate(0.00deg) scale(1.03, 1.03) ;}50.00% {transform: translate(0.00px,0.00px) rotate(0.00deg) scale(1.03, 1.03) ;}54.00% {transform: translate(0.00px,0.00px) rotate(0.00deg) scale(1.03, 1.03) ;}58.00% {animation-timing-function: cubic-bezier(0.69,0.60,0.35,0.27);transform: translate(0.00px,0.00px) rotate(0.00deg) scale(1.03, 1.03) ;}64.00% {transform: translate(0.00px,0.00px) rotate(0.00deg) scale(1.01, 1.01) ;}68.00% {transform: translate(0.00px,0.00px) rotate(0.00deg) scale(1.00, 1.00) ;}72.00% {animation-timing-function: cubic-bezier(0.67,0.66,0.34,0.33);transform: translate(0.00px,0.00px) rotate(0.00deg) scale(0.98, 0.98) ;}76.00% {animation-timing-function: cubic-bezier(0.66,0.68,0.33,0.35);transform: translate(0.00px,0.00px) rotate(0.00deg) scale(0.97, 0.97) ;}82.00% {animation-timing-function: cubic-bezier(0.65,0.71,0.32,0.38);transform: translate(0.00px,0.00px) rotate(0.00deg) scale(0.94, 0.94) ;}88.00% {animation-timing-function: cubic-bezier(0.65,0.73,0.31,0.40);transform: translate(0.00px,0.00px) rotate(0.00deg) scale(0.92, 0.92) ;}94.00% {animation-timing-function: cubic-bezier(0.63,0.80,0.28,0.48);transform: translate(0.00px,0.00px) rotate(0.00deg) scale(0.91, 0.91) ;}100.00% {animation-timing-function: cubic-bezier(0.63,0.80,0.28,0.48);transform: translate(0.00px,0.00px) rotate(0.00deg) scale(0.91, 0.91) ;} }</style><!-- [ldio] generated by https://loading.io --></svg>