<svg xmlns="http://www.w3.org/2000/svg" xmlns:xlink="http://www.w3.org/1999/xlink" viewBox="0 0 162 35" preserveAspectRatio="xMidYMid" style="display: block; shape-rendering: auto; background: transparent;" width="100%" height="100%"><style type="text/css">
  .ld-text text {
    text-anchor: middle;
    dominant-baseline: middle;
    font-size: 28px;
    opacity: 0;
    user-select: none;
    pointer-events: none;
  }
</style>
<g style="transform-origin:81px 17.5px;transform:scale(1)" class="ld-text">
<g transform="translate(81,17.5)">
  <g transform="scale(0.3500) translate(0,0)"><g class="path" style="opacity: 0; transform-origin: -184.49px -5.04px; transform: matrix3d(0, 0, 0, 0, 0, 0, 0, 0, 0, 0, 0, 0, 0, 0, 0, 1); animation: 1s linear -0.6s 30 normal forwards running animate-l120g20x8sd; transform-box: view-box;"><path d="M17.04 32.57Q17.04 40.97 17.92 43.73Q18.80 46.49 21.16 46.49Q23.52 46.49 25.24 44.41Q26.96 42.33 26.96 38.25L26.96 38.25L26.96 20.81Q26.96 17.37 25.60 14.97Q24.24 12.57 21.60 12.57Q18.96 12.57 18 16.09Q17.04 19.61 17.04 28.41L17.04 28.41L17.04 32.57 zM45.76 49.13L28 49.13L27.12 43.53Q24.40 49.93 16.08 49.93L16.08 49.93Q9.20 49.93 5.40 44.97Q1.60 40.01 1.60 30.17L1.60 30.17Q1.60 10.25 17.44 10.25L17.44 10.25Q24.48 10.25 26.72 14.17L26.72 14.17L26.72-9.43L21.84-9.43L21.84-10.87L41.84-10.87L41.84 47.69L45.76 47.69L45.76 49.13" style="fill: rgb(40, 220, 161);" transform="translate(-208.174,-24.565)"></path></g><g class="path" style="opacity: 0; transform-origin: -140.92px 5.52px; transform: matrix3d(0, 0, 0, 0, 0, 0, 0, 0, 0, 0, 0, 0, 0, 0, 0, 1); animation: 1s linear -0.54s 30 normal forwards running animate-l120g20x8sd; transform-box: view-box;"><path d="M68.88 49.93Q58.56 49.93 53.40 44.61Q48.24 39.29 48.24 29.81Q48.24 20.33 54.04 15.29Q59.84 10.25 68.80 10.25L68.80 10.25Q86.96 10.25 86.24 28.49L86.24 28.49L63.68 28.49L63.68 31.61Q63.68 39.45 65.68 43.45Q67.68 47.45 72.64 47.45L72.64 47.45Q81.92 47.45 84.80 37.53L84.80 37.53L86.24 37.77Q84.72 43.53 80.76 46.73Q76.80 49.93 68.88 49.93L68.88 49.93 zM63.76 22.97L63.76 26.89L72 26.89L72 22.97Q72 16.49 71.24 14.13Q70.48 11.77 68.20 11.77Q65.92 11.77 64.84 14.29Q63.76 16.81 63.76 22.97L63.76 22.97" style="fill: rgb(43, 204, 240);" transform="translate(-208.174,-24.565)"></path></g><g class="path" style="opacity: 0; transform-origin: -102.77px 5.44px; transform: matrix3d(0, 0, 0, 0, 0, 0, 0, 0, 0, 0, 0, 0, 0, 0, 0, 1); animation: 1s linear -0.48s 30 normal forwards running animate-l120g20x8sd; transform-box: view-box;"><path d="M91.12 49.93L90.16 49.93L90.16 35.61L91.12 35.61Q93.20 42.57 96.72 45.37Q100.24 48.17 105.52 48.17L105.52 48.17Q113.68 48.17 113.68 42.97L113.68 42.97Q113.68 40.73 111.68 39.61L111.68 39.61Q108.56 37.85 103.68 36.89L103.68 36.89Q98.24 35.45 94.56 33.05L94.56 33.05Q90.16 30.17 90.16 23.93Q90.16 17.69 94 13.97Q97.84 10.25 104.24 10.25L104.24 10.25Q108.16 10.25 112.32 12.09L112.32 12.09Q113.84 12.73 114.64 12.73Q115.44 12.73 116 12.17Q116.56 11.61 117.36 10.09L117.36 10.09L118.24 10.09L118.24 22.33L117.28 22.33Q113.20 11.93 104.64 11.93L104.64 11.93Q100.88 11.93 99.04 13.25Q97.20 14.57 97.20 16.57L97.20 16.57Q97.20 17.77 97.76 18.45Q98.32 19.13 98.64 19.45Q98.96 19.77 99.68 20.13Q100.40 20.49 100.88 20.69Q101.36 20.89 102.36 21.21Q103.36 21.53 103.84 21.61L103.84 21.61Q109.28 22.97 111.68 23.97Q114.08 24.97 116.24 26.41L116.24 26.41Q120.64 29.45 120.64 36.21Q120.64 42.97 116.64 46.45Q112.64 49.93 105.68 49.93L105.68 49.93Q100.72 49.93 96.08 47.61L96.08 47.61Q95.12 46.97 94.56 46.97L94.56 46.97Q92.80 46.97 91.12 49.93L91.12 49.93" style="fill: rgb(211, 127, 236);" transform="translate(-208.174,-24.565)"></path></g><g class="path" style="opacity: 0; transform-origin: -65.72px 5.52px; transform: matrix3d(0, 0, 0, 0, 0, 0, 0, 0, 0, 0, 0, 0, 0, 0, 0, 1); animation: 1s linear -0.42s 30 normal forwards running animate-l120g20x8sd; transform-box: view-box;"><path d="M144.08 49.93Q133.76 49.93 128.60 44.61Q123.44 39.29 123.44 29.81Q123.44 20.33 129.24 15.29Q135.04 10.25 144 10.25L144 10.25Q162.16 10.25 161.44 28.49L161.44 28.49L138.88 28.49L138.88 31.61Q138.88 39.45 140.88 43.45Q142.88 47.45 147.84 47.45L147.84 47.45Q157.12 47.45 160 37.53L160 37.53L161.44 37.77Q159.92 43.53 155.96 46.73Q152 49.93 144.08 49.93L144.08 49.93 zM138.96 22.97L138.96 26.89L147.20 26.89L147.20 22.97Q147.20 16.49 146.44 14.13Q145.68 11.77 143.40 11.77Q141.12 11.77 140.04 14.29Q138.96 16.81 138.96 22.97L138.96 22.97" style="fill: rgb(255, 185, 0);" transform="translate(-208.174,-24.565)"></path></g><g class="path" style="opacity: 0; transform-origin: -21.89px 5.52px; transform: matrix3d(0, 0, 0, 0, 0, 0, 0, 0, 0, 0, 0, 0, 0, 0, 0, 1); animation: 1s linear -0.36s 30 normal forwards running animate-l120g20x8sd; transform-box: view-box;"><path d="M183.52 30.33L183.52 30.33L185.84 30.33L185.84 24.17Q185.84 16.57 185 13.97Q184.16 11.37 181.76 11.37L181.76 11.37Q180.32 11.37 179.16 12.13Q178 12.89 178 14.21Q178 15.53 178.48 16.89L178.48 16.89L180.48 16.89Q181.12 18.57 181.12 20.93Q181.12 23.29 179.12 25.01Q177.12 26.73 174.08 26.73L174.08 26.73Q167.20 26.73 167.20 20.09L167.20 20.09Q167.20 10.25 183.92 10.25L183.92 10.25Q193.44 10.25 197.08 13.49Q200.72 16.73 200.72 25.37L200.72 25.37L200.72 41.61Q200.72 45.77 203.04 45.77L203.04 45.77Q205.76 45.77 206.24 37.53L206.24 37.53L207.44 37.61Q207.12 44.65 204.80 47.29Q202.48 49.93 197.20 49.93L197.20 49.93Q187.60 49.93 186.16 44.01L186.16 44.01Q185.12 47.05 183.04 48.49Q180.96 49.93 176.96 49.93L176.96 49.93Q165.12 49.93 165.12 40.25L165.12 40.25Q165.12 34.57 169.64 32.45Q174.16 30.33 183.52 30.33 zM180.32 40.17Q180.32 44.33 180.76 45.53Q181.20 46.73 182.44 46.73Q183.68 46.73 184.76 44.69Q185.84 42.65 185.84 39.05L185.84 39.05L185.84 31.61L185.28 31.61Q180.32 31.61 180.32 38.89L180.32 38.89L180.32 40.17" style="fill: rgb(239, 113, 119);" transform="translate(-208.174,-24.565)"></path></g><g class="path" style="opacity: 0; transform-origin: -22.65px -27.05px; transform: matrix3d(0, 0, 0, 0, 0, 0, 0, 0, 0, 0, 0, 0, 0, 0, 0, 1); animation: 1s linear -0.3s 30 normal forwards running animate-l120g20x8sd; transform-box: view-box;"><path d="M179.44 5.93L178.56 5.37L183.60-9.91L187.36-10.71Q189.84-11.27 191.16-10.11Q192.48-8.95 192.48-6.99Q192.48-5.03 190.16-2.95L190.16-2.95L179.44 5.93" style="fill: rgb(40, 220, 161);" transform="translate(-208.174,-24.565)"></path></g><g class="path" style="opacity: 0; transform-origin: 24.27px 5.13px; transform: matrix3d(0, 0, 0, 0, 0, 0, 0, 0, 0, 0, 0, 0, 0, 0, 0, 1); animation: 1s linear -0.24s 30 normal forwards running animate-l120g20x8sd; transform-box: view-box;"><path d="M208.40 12.49L208.40 11.05L227.68 11.05L227.68 18.41Q228.96 14.73 231.60 12.49Q234.24 10.25 239.60 10.25L239.60 10.25Q252 10.25 252 23.61L252 23.61L252 47.69L256.48 47.69L256.48 49.13L233.84 49.13L233.84 47.69L237.12 47.69L237.12 21.69Q237.12 16.89 236.48 15.49Q235.84 14.09 234.16 14.09L234.16 14.09Q231.60 14.09 229.64 17.45Q227.68 20.81 227.68 25.61L227.68 25.61L227.68 47.69L231.12 47.69L231.12 49.13L208.40 49.13L208.40 47.69L212.80 47.69L212.80 12.49L208.40 12.49" style="fill: rgb(43, 204, 240);" transform="translate(-208.174,-24.565)"></path></g><g class="path" style="opacity: 0; transform-origin: 72.23px -5.04px; transform: matrix3d(0, 0, 0, 0, 0, 0, 0, 0, 0, 0, 0, 0, 0, 0, 0, 1); animation: 1s linear -0.18s 30 normal forwards running animate-l120g20x8sd; transform-box: view-box;"><path d="M273.76 32.57Q273.76 40.97 274.64 43.73Q275.52 46.49 277.88 46.49Q280.24 46.49 281.96 44.41Q283.68 42.33 283.68 38.25L283.68 38.25L283.68 20.81Q283.68 17.37 282.32 14.97Q280.96 12.57 278.32 12.57Q275.68 12.57 274.72 16.09Q273.76 19.61 273.76 28.41L273.76 28.41L273.76 32.57 zM302.48 49.13L284.72 49.13L283.84 43.53Q281.12 49.93 272.80 49.93L272.80 49.93Q265.92 49.93 262.12 44.97Q258.32 40.01 258.32 30.17L258.32 30.17Q258.32 10.25 274.16 10.25L274.16 10.25Q281.20 10.25 283.44 14.17L283.44 14.17L283.44-9.43L278.56-9.43L278.56-10.87L298.56-10.87L298.56 47.69L302.48 47.69L302.48 49.13" style="fill: rgb(211, 127, 236);" transform="translate(-208.174,-24.565)"></path></g><g class="path" style="opacity: 0; transform-origin: 117.31px 5.52px; transform: matrix3d(0, 0, 0, 0, 0, 0, 0, 0, 0, 0, 0, 0, 0, 0, 0, 1); animation: 1s linear -0.12s 30 normal forwards running animate-l120g20x8sd; transform-box: view-box;"><path d="M330.40 33.37L330.40 33.37L330.40 26.57Q330.40 18.81 329.56 15.25Q328.72 11.69 325.68 11.69L325.68 11.69Q323.92 11.69 322.84 12.69Q321.76 13.69 321.28 16.01L321.28 16.01Q320.56 19.61 320.56 26.97L320.56 26.97L320.56 33.21Q320.56 41.93 321.08 43.69Q321.60 45.45 322.16 46.57L322.16 46.57Q323.04 48.49 325.60 48.49L325.60 48.49Q328.72 48.49 329.68 44.89L329.68 44.89Q330.40 42.33 330.40 33.37 zM325.44 49.93Q315.44 49.93 310.32 44.81Q305.20 39.69 305.20 30.13Q305.20 20.57 310.68 15.41Q316.16 10.25 326.08 10.25Q336 10.25 340.88 15.01Q345.76 19.77 345.76 29.53L345.76 29.53Q345.76 49.93 325.44 49.93L325.44 49.93" style="fill: rgb(255, 185, 0);" transform="translate(-208.174,-24.565)"></path></g><g class="path" style="opacity: 0; transform-origin: 154.99px -1.08px; transform: matrix3d(0, 0, 0, 0, 0, 0, 0, 0, 0, 0, 0, 0, 0, 0, 0, 1); animation: 1s linear -0.06s 30 normal forwards running animate-l120g20x8sd; transform-box: view-box;"><path d="M352 37.69L352 37.69L352 12.49L347.60 12.49L347.60 11.05L352 11.05L352 0.73L366.88-2.95L366.88 11.05L377.28 11.05L377.28 12.49L366.88 12.49L366.88 39.45Q366.88 43.21 367.64 44.97Q368.40 46.73 370.80 46.73Q373.20 46.73 375 44.33Q376.80 41.93 377.36 37.77L377.36 37.77L378.72 37.93Q378.08 43.45 375.20 46.69Q372.32 49.93 365.68 49.93Q359.04 49.93 355.52 47.29Q352 44.65 352 37.69" style="fill: rgb(239, 113, 119);" transform="translate(-208.174,-24.565)"></path></g><g class="path" style="opacity: 0; transform-origin: 190.76px 5.52px; transform: matrix3d(0, 0, 0, 0, 0, 0, 0, 0, 0, 0, 0, 0, 0, 0, 0, 1); animation: 1s linear 0s 30 normal forwards running animate-l120g20x8sd; transform-box: view-box;"><path d="M400.56 49.93Q390.24 49.93 385.08 44.61Q379.92 39.29 379.92 29.81Q379.92 20.33 385.72 15.29Q391.52 10.25 400.48 10.25L400.48 10.25Q418.64 10.25 417.92 28.49L417.92 28.49L395.36 28.49L395.36 31.61Q395.36 39.45 397.36 43.45Q399.36 47.45 404.32 47.45L404.32 47.45Q413.60 47.45 416.48 37.53L416.48 37.53L417.92 37.77Q416.40 43.53 412.44 46.73Q408.48 49.93 400.56 49.93L400.56 49.93 zM395.44 22.97L395.44 26.89L403.68 26.89L403.68 22.97Q403.68 16.49 402.92 14.13Q402.16 11.77 399.88 11.77Q397.60 11.77 396.52 14.29Q395.44 16.81 395.44 22.97L395.44 22.97" style="fill: rgb(40, 220, 161);" transform="translate(-208.174,-24.565)"></path></g></g><text dy="0.35em" fill="#28dca1" font-family="Abril Fatface" font-size="28">deseándote</text>
</g>
</g><style type="text/css">@keyframes animate-l120g20x8sd { 0.00% {animation-timing-function: cubic-bezier(0.68,0.62,0.35,0.29);transform: translate(0.00px,0.00px) rotate(0.00deg) scale(0.00, 0.00) skew(0deg, 0.00deg) ;opacity: 0.00;}4.00% {transform: translate(0.00px,0.00px) rotate(0.00deg) scale(0.47, 0.47) ;opacity: 0.40;}6.00% {transform: translate(0.00px,0.00px) rotate(0.00deg) scale(0.73, 0.73) ;opacity: 0.60;}8.00% {transform: translate(0.00px,0.00px) rotate(0.00deg) scale(0.95, 0.95) ;opacity: 0.80;}10.00% {transform: translate(0.00px,0.00px) rotate(0.00deg) scale(1.09, 1.09) ;opacity: 1.00;}12.00% {transform: translate(0.00px,0.00px) rotate(0.00deg) scale(1.15, 1.15) ;opacity: 1.00;}16.00% {transform: translate(0.00px,0.00px) rotate(0.00deg) scale(1.03, 1.03) ;opacity: 1.00;}18.00% {transform: translate(0.00px,0.00px) rotate(0.00deg) scale(0.90, 0.90) ;opacity: 1.00;}22.00% {transform: translate(0.00px,0.00px) rotate(0.00deg) scale(0.67, 0.67) ;opacity: 1.00;}24.00% {animation-timing-function: cubic-bezier(0.79,0.32,0.40,0.05);transform: translate(0.00px,0.00px) rotate(0.00deg) scale(0.63, 0.63) ;opacity: 1.00;}30.00% {transform: translate(0.00px,0.00px) rotate(0.00deg) scale(0.82, 0.82) ;opacity: 1.00;}32.00% {transform: translate(0.00px,0.00px) rotate(0.00deg) scale(0.93, 0.93) ;opacity: 1.00;}36.00% {transform: translate(0.00px,0.00px) rotate(0.00deg) scale(1.07, 1.07) ;opacity: 1.00;}38.00% {transform: translate(0.00px,0.00px) rotate(0.00deg) scale(1.08, 1.08) ;opacity: 1.00;}42.00% {transform: translate(0.00px,0.00px) rotate(0.00deg) scale(0.99, 0.99) ;opacity: 1.00;}44.00% {transform: translate(0.00px,0.00px) rotate(0.00deg) scale(0.91, 0.91) ;opacity: 1.00;}48.00% {transform: translate(0.00px,0.00px) rotate(0.00deg) scale(0.81, 0.81) ;opacity: 1.00;}50.00% {transform: translate(0.00px,0.00px) rotate(0.00deg) scale(0.80, 0.80) ;opacity: 1.00;}54.00% {transform: translate(0.00px,0.00px) rotate(0.00deg) scale(0.88, 0.88) ;opacity: 1.00;}56.00% {transform: translate(0.00px,0.00px) rotate(0.00deg) scale(0.94, 0.94) ;opacity: 1.00;}60.00% {transform: translate(0.00px,0.00px) rotate(0.00deg) scale(1.03, 1.03) ;opacity: 1.00;}62.00% {transform: translate(0.00px,0.00px) rotate(0.00deg) scale(1.04, 1.04) ;opacity: 1.00;}66.00% {transform: translate(0.00px,0.00px) rotate(0.00deg) scale(1.01, 1.01) ;opacity: 1.00;}68.00% {transform: translate(0.00px,0.00px) rotate(0.00deg) scale(0.98, 0.98) ;opacity: 1.00;}72.00% {transform: translate(0.00px,0.00px) rotate(0.00deg) scale(0.92, 0.92) ;opacity: 1.00;}74.00% {transform: translate(0.00px,0.00px) rotate(0.00deg) scale(0.91, 0.91) ;opacity: 1.00;}78.00% {transform: translate(0.00px,0.00px) rotate(0.00deg) scale(0.94, 0.94) ;opacity: 1.00;}80.00% {transform: translate(0.00px,0.00px) rotate(0.00deg) scale(0.96, 0.96) ;opacity: 1.00;}84.00% {transform: translate(0.00px,0.00px) rotate(0.00deg) scale(1.00, 1.00) ;opacity: 1.00;}86.00% {transform: translate(0.00px,0.00px) rotate(0.00deg) scale(1.01, 1.01) ;opacity: 1.00;}90.00% {transform: translate(0.00px,0.00px) rotate(0.00deg) scale(1.01, 1.01) ;opacity: 1.00;}92.00% {animation-timing-function: cubic-bezier(0.60,0.94,0.21,0.66);transform: translate(0.00px,0.00px) rotate(0.00deg) scale(1.00, 1.00) ;opacity: 1.00;}96.00% {transform: translate(0.00px,0.00px) rotate(0.00deg) scale(0.99, 0.99) ;opacity: 1.00;}100.00% {transform: translate(0.00px,0.00px) rotate(0.00deg) scale(1.00, 1.00) ;opacity: 1.00;} }</style><!-- [ldio] generated by https://loading.io --></svg>